<?xml version="1.0" encoding="utf-8"?>
<!-- Generator: Adobe Illustrator 26.0.1, SVG Export Plug-In . SVG Version: 6.00 Build 0)  -->
<svg version="1.1" id="Calque_1" xmlns="http://www.w3.org/2000/svg" xmlns:xlink="http://www.w3.org/1999/xlink" x="0px" y="0px"
	 viewBox="0 0 100 100" style="enable-background:new 0 0 100 100;" xml:space="preserve">
<style type="text/css">
	.st0{fill:#FFFFFF;}
</style>
<g>
	<path class="st0" d="M70.48,58.55L70.48,58.55c-0.83,1.07-2.37,1.26-3.43,0.43L51.51,46.89c-0.88-0.69-2.12-0.69-3.01,0
		L32.95,58.98c-1.07,0.83-2.6,0.64-3.43-0.43l0,0c-0.83-1.07-0.64-2.61,0.43-3.44L48.5,40.69c0.88-0.69,2.12-0.69,3.01,0
		l18.55,14.43C71.12,55.94,71.31,57.48,70.48,58.55z"/>
	<path class="st0" d="M17.93,83.85c-6.11,0-11.09-4.97-11.09-11.08V27.25c0-6.12,4.97-11.1,11.09-11.1h64.14
		c6.11,0,11.09,4.98,11.09,11.1v45.51c0,6.11-4.97,11.08-11.09,11.08H17.93z M17.93,17.55c-5.34,0-9.68,4.35-9.68,9.7v45.51
		c0,5.34,4.34,9.68,9.68,9.68h64.14c5.34,0,9.68-4.34,9.68-9.68V27.25c0-5.35-4.34-9.7-9.68-9.7H17.93z"/>
	<path class="st0" d="M82.07,16.65H17.93c-5.84,0-10.59,4.76-10.59,10.6v45.51c0,5.84,4.75,10.59,10.59,10.59h64.14
		c5.84,0,10.59-4.75,10.59-10.59V27.25C92.66,21.41,87.91,16.65,82.07,16.65z M92.25,72.76c0,5.63-4.57,10.18-10.18,10.18H17.93
		c-5.63,0-10.18-4.55-10.18-10.18V27.25c0-5.63,4.55-10.2,10.18-10.2h64.14c5.61,0,10.18,4.57,10.18,10.2V72.76z"/>
</g>
</svg>
