<?xml version="1.0" encoding="utf-8"?>
<!-- Generator: Adobe Illustrator 26.0.1, SVG Export Plug-In . SVG Version: 6.00 Build 0)  -->
<svg version="1.1" xmlns="http://www.w3.org/2000/svg" xmlns:xlink="http://www.w3.org/1999/xlink" x="0px" y="0px"
	 viewBox="0 0 512 512" style="enable-background:new 0 0 512 512;" xml:space="preserve">
<style type="text/css">
	.st0{fill:#878787;}
</style>
<g id="Calque_2">
</g>
<g id="Calque_1">
	<g>
		<path class="st0" d="M462.22,419.58c-39.2,36.78-100.95,34.83-138.92-3.25L180.87,273.62c-8.77-8.79-13.7-20.7-13.7-33.13
			c0-12.43,4.93-24.34,13.7-33.13l175.77,176.11c19.89,19.91,52.09,21.38,72.97,2.51c5.31-4.79,9.6-10.61,12.59-17.1
			c2.99-6.5,4.64-13.54,4.82-20.7c0.19-7.15-1.08-14.27-3.72-20.92c-2.65-6.65-6.62-12.69-11.67-17.75L271.8,149.4
			c-4.27-4.42-6.64-10.34-6.59-16.49c0.05-6.15,2.51-12.04,6.85-16.39c4.34-4.35,10.22-6.81,16.36-6.86
			c6.14-0.05,12.05,2.33,16.46,6.61l159.82,160.12c9.43,9.45,16.87,20.71,21.87,33.1c5,12.39,7.46,25.66,7.23,39.03
			c-0.23,13.36-3.14,26.54-8.57,38.75C479.8,399.47,471.98,410.46,462.22,419.58L462.22,419.58z"/>
		<path class="st0" d="M49.31,92.18c39.2-36.78,100.95-34.83,138.92,3.25l142.44,142.71c8.77,8.79,13.7,20.7,13.7,33.13
			s-4.93,24.34-13.7,33.13L154.9,128.29c-19.89-19.91-52.09-21.38-72.97-2.51c-5.31,4.79-9.6,10.61-12.59,17.1
			c-2.99,6.5-4.64,13.54-4.82,20.7c-0.19,7.15,1.08,14.27,3.72,20.92c2.65,6.65,6.62,12.69,11.67,17.75l159.82,160.12
			c4.27,4.42,6.64,10.34,6.59,16.49c-0.05,6.15-2.51,12.04-6.85,16.39c-4.34,4.35-10.22,6.81-16.36,6.86
			c-6.14,0.05-12.05-2.33-16.46-6.61L46.84,235.38c-9.43-9.45-16.87-20.71-21.87-33.1c-5-12.39-7.46-25.66-7.23-39.03
			c0.23-13.36,3.14-26.54,8.57-38.75C31.73,112.29,39.55,101.3,49.31,92.18L49.31,92.18z"/>
	</g>
</g>
</svg>
